<svg width="500" height="500" viewBox="0 0 500 500" fill="none" xmlns="http://www.w3.org/2000/svg">
<g clip-path="url(#clip0_2_2)">
<path d="M281.25 250C281.25 267.285 267.285 281.25 250 281.25C232.715 281.25 218.75 267.285 218.75 250C218.75 232.715 232.715 218.75 250 218.75C267.285 218.75 281.25 232.715 281.25 250ZM0 250C0 111.914 111.914 0 250 0C388.086 0 500 111.914 500 250C500 388.086 388.086 500 250 500C111.914 500 0 388.086 0 250ZM317.48 299.512L371.68 158.594C379.004 138.77 360.352 120.996 341.406 128.32L200.488 182.52C192.188 185.645 185.645 192.188 182.52 200.488L128.32 341.406C120.996 360.352 138.77 379.004 158.594 371.68L299.512 317.48C307.812 314.355 314.355 307.812 317.48 299.512Z" fill="white"/>
<g filter="url(#filter0_d_2_2)">
<path fill-rule="evenodd" clip-rule="evenodd" d="M317.48 299.512L371.68 158.594C379.004 138.77 360.352 120.996 341.406 128.32L200.488 182.52C192.188 185.645 185.645 192.188 182.52 200.488L128.32 341.406C120.996 360.352 138.77 379.004 158.594 371.68L299.512 317.48C307.812 314.355 314.355 307.812 317.48 299.512ZM250 281.25C267.285 281.25 281.25 267.285 281.25 250C281.25 232.715 267.285 218.75 250 218.75C232.715 218.75 218.75 232.715 218.75 250C218.75 267.285 232.715 281.25 250 281.25Z" fill="#B59DF7"/>
</g>
<g filter="url(#filter1_d_2_2)">
<path d="M282 250C282 267.7 267.7 282 250 282C232.3 282 218 267.7 218 250C218 232.3 232.3 218 250 218C267.7 218 282 232.3 282 250Z" fill="#FF799F"/>
</g>
</g>
<defs>
<filter id="filter0_d_2_2" x="122.637" y="126.637" width="254.672" height="254.672" filterUnits="userSpaceOnUse" color-interpolation-filters="sRGB">
<feFlood flood-opacity="0" result="BackgroundImageFix"/>
<feColorMatrix in="SourceAlpha" type="matrix" values="0 0 0 0 0 0 0 0 0 0 0 0 0 0 0 0 0 0 127 0" result="hardAlpha"/>
<feOffset dy="4"/>
<feGaussianBlur stdDeviation="2"/>
<feComposite in2="hardAlpha" operator="out"/>
<feColorMatrix type="matrix" values="0 0 0 0 0 0 0 0 0 0 0 0 0 0 0 0 0 0 0.25 0"/>
<feBlend mode="normal" in2="BackgroundImageFix" result="effect1_dropShadow_2_2"/>
<feBlend mode="normal" in="SourceGraphic" in2="effect1_dropShadow_2_2" result="shape"/>
</filter>
<filter id="filter1_d_2_2" x="214" y="218" width="72" height="72" filterUnits="userSpaceOnUse" color-interpolation-filters="sRGB">
<feFlood flood-opacity="0" result="BackgroundImageFix"/>
<feColorMatrix in="SourceAlpha" type="matrix" values="0 0 0 0 0 0 0 0 0 0 0 0 0 0 0 0 0 0 127 0" result="hardAlpha"/>
<feOffset dy="4"/>
<feGaussianBlur stdDeviation="2"/>
<feComposite in2="hardAlpha" operator="out"/>
<feColorMatrix type="matrix" values="0 0 0 0 0 0 0 0 0 0 0 0 0 0 0 0 0 0 0.25 0"/>
<feBlend mode="normal" in2="BackgroundImageFix" result="effect1_dropShadow_2_2"/>
<feBlend mode="normal" in="SourceGraphic" in2="effect1_dropShadow_2_2" result="shape"/>
</filter>
<clipPath id="clip0_2_2">
<rect width="500" height="500" fill="white"/>
</clipPath>
</defs>
</svg>
